<?xml version="1.0" encoding="iso-8859-1"?>
<!-- Uploaded to: SVG Repo, www.svgrepo.com, Generator: SVG Repo Mixer Tools -->
<svg fill="#000000" height="800px" width="800px" version="1.1" id="Layer_1" xmlns="http://www.w3.org/2000/svg" xmlns:xlink="http://www.w3.org/1999/xlink" 
	 viewBox="0 0 512 512" xml:space="preserve">
<g>
	<g>
		<g>
			<path d="M234.667,138.667h-128c-11.782,0-21.333,9.551-21.333,21.333v85.333c0,11.782,9.551,21.333,21.333,21.333h128
				c11.782,0,21.333-9.551,21.333-21.333V160C256,148.218,246.449,138.667,234.667,138.667z M213.333,224H128v-42.667h85.333V224z"
				/>
			<path d="M512,138.667v-64c0-11.782-9.551-21.333-21.333-21.333H21.333C9.551,53.333,0,62.885,0,74.667v320
				C0,406.449,9.551,416,21.333,416h24.987c8.784,24.858,32.474,42.667,60.346,42.667s51.562-17.808,60.346-42.667h177.975
				c8.784,24.858,32.474,42.667,60.346,42.667c27.872,0,51.562-17.808,60.346-42.667h24.987c11.782,0,21.333-9.551,21.333-21.333
				V288c0-11.782-9.551-21.333-21.333-21.333V160C502.449,160,512,150.449,512,138.667z M106.667,416
				c-11.791,0-21.333-9.542-21.333-21.333s9.542-21.333,21.333-21.333S128,382.875,128,394.667S118.458,416,106.667,416z
				 M405.333,416C393.542,416,384,406.458,384,394.667s9.542-21.333,21.333-21.333s21.333,9.542,21.333,21.333
				S417.125,416,405.333,416z M469.333,373.333h-3.64c-0.046-0.131-0.099-0.259-0.146-0.39c-0.102-0.283-0.211-0.563-0.317-0.845
				c-0.235-0.623-0.478-1.242-0.732-1.856c-0.123-0.298-0.247-0.596-0.375-0.892c-0.277-0.643-0.567-1.28-0.864-1.912
				c-0.107-0.228-0.21-0.459-0.32-0.685c-0.41-0.845-0.837-1.681-1.283-2.505c-0.09-0.167-0.187-0.329-0.279-0.495
				c-0.365-0.66-0.739-1.314-1.126-1.959c-0.16-0.267-0.325-0.531-0.489-0.795c-0.344-0.554-0.695-1.103-1.055-1.646
				c-0.171-0.259-0.342-0.518-0.517-0.774c-0.423-0.618-0.857-1.228-1.301-1.83c-0.113-0.153-0.22-0.31-0.334-0.461
				c-0.559-0.745-1.135-1.477-1.726-2.196c-0.156-0.19-0.318-0.374-0.476-0.562c-0.447-0.532-0.901-1.058-1.365-1.575
				c-0.211-0.235-0.425-0.468-0.64-0.7c-0.444-0.481-0.896-0.954-1.354-1.42c-0.207-0.211-0.412-0.423-0.621-0.631
				c-0.612-0.606-1.234-1.202-1.87-1.783c-0.053-0.048-0.103-0.099-0.156-0.147c-0.689-0.626-1.395-1.233-2.112-1.829
				c-0.216-0.18-0.437-0.353-0.656-0.53c-0.517-0.419-1.039-0.83-1.569-1.233c-0.254-0.193-0.509-0.384-0.765-0.573
				c-0.543-0.4-1.093-0.789-1.648-1.172c-0.223-0.154-0.444-0.311-0.669-0.462c-0.777-0.521-1.563-1.028-2.363-1.515
				c-0.1-0.061-0.203-0.117-0.304-0.177c-0.704-0.423-1.417-0.833-2.139-1.229c-0.266-0.146-0.534-0.286-0.802-0.428
				c-0.58-0.308-1.164-0.608-1.755-0.898c-0.286-0.141-0.571-0.281-0.859-0.417c-0.646-0.306-1.3-0.6-1.958-0.885
				c-0.216-0.094-0.429-0.192-0.647-0.284c-0.87-0.365-1.75-0.713-2.639-1.04c-0.202-0.074-0.408-0.141-0.611-0.213
				c-0.698-0.249-1.4-0.488-2.108-0.713c-0.304-0.097-0.61-0.188-0.917-0.281c-0.639-0.193-1.283-0.375-1.93-0.548
				c-0.304-0.081-0.606-0.164-0.912-0.24c-0.778-0.195-1.561-0.376-2.35-0.542c-0.161-0.034-0.32-0.074-0.481-0.107
				c-0.947-0.192-1.903-0.361-2.864-0.511c-0.268-0.042-0.539-0.075-0.808-0.113c-0.708-0.101-1.418-0.193-2.133-0.271
				c-0.333-0.036-0.668-0.069-1.003-0.1c-0.694-0.065-1.391-0.117-2.091-0.159c-0.307-0.019-0.613-0.041-0.921-0.055
				c-0.996-0.046-1.995-0.076-3.002-0.076s-2.007,0.03-3.002,0.076c-0.308,0.014-0.614,0.037-0.921,0.055
				c-0.7,0.042-1.397,0.094-2.091,0.159c-0.335,0.031-0.669,0.064-1.003,0.1c-0.715,0.078-1.425,0.169-2.132,0.271
				c-0.269,0.039-0.54,0.072-0.809,0.113c-0.962,0.15-1.917,0.319-2.864,0.511c-0.161,0.033-0.319,0.073-0.48,0.107
				c-0.789,0.167-1.573,0.347-2.351,0.542c-0.306,0.077-0.609,0.16-0.913,0.241c-0.647,0.173-1.291,0.355-1.93,0.548
				c-0.306,0.092-0.612,0.184-0.916,0.281c-0.708,0.225-1.41,0.464-2.108,0.713c-0.203,0.073-0.41,0.139-0.612,0.214
				c-0.889,0.328-1.769,0.675-2.639,1.04c-0.217,0.091-0.43,0.19-0.647,0.284c-0.658,0.285-1.311,0.579-1.958,0.885
				c-0.288,0.136-0.573,0.277-0.859,0.417c-0.591,0.291-1.176,0.591-1.756,0.899c-0.267,0.142-0.535,0.282-0.8,0.427
				c-0.721,0.396-1.433,0.805-2.137,1.228c-0.102,0.061-0.206,0.118-0.307,0.179c-0.8,0.487-1.586,0.994-2.363,1.514
				c-0.225,0.151-0.445,0.308-0.669,0.462c-0.556,0.383-1.107,0.773-1.65,1.173c-0.256,0.188-0.51,0.379-0.763,0.571
				c-0.531,0.404-1.055,0.816-1.573,1.236c-0.218,0.176-0.437,0.349-0.653,0.528c-0.716,0.596-1.423,1.204-2.113,1.83
				c-0.053,0.048-0.103,0.099-0.156,0.147c-0.636,0.581-1.258,1.177-1.87,1.783c-0.21,0.208-0.414,0.42-0.621,0.631
				c-0.458,0.467-0.91,0.94-1.354,1.42c-0.215,0.232-0.428,0.465-0.64,0.7c-0.464,0.517-0.918,1.043-1.365,1.575
				c-0.158,0.188-0.32,0.372-0.476,0.562c-0.591,0.72-1.167,1.452-1.727,2.197c-0.113,0.15-0.219,0.305-0.33,0.456
				c-0.445,0.604-0.881,1.216-1.305,1.836c-0.174,0.255-0.344,0.513-0.514,0.77c-0.361,0.544-0.713,1.094-1.058,1.65
				c-0.163,0.263-0.327,0.526-0.487,0.792c-0.388,0.648-0.764,1.304-1.13,1.966c-0.09,0.164-0.186,0.324-0.275,0.488
				c-0.446,0.825-0.873,1.661-1.284,2.507c-0.109,0.225-0.21,0.454-0.317,0.68c-0.299,0.634-0.589,1.273-0.867,1.918
				c-0.127,0.295-0.25,0.591-0.373,0.888c-0.254,0.615-0.497,1.235-0.733,1.859c-0.106,0.281-0.215,0.561-0.317,0.844
				c-0.047,0.131-0.1,0.259-0.146,0.39H167.027c-0.046-0.131-0.099-0.259-0.146-0.39c-0.102-0.283-0.211-0.563-0.317-0.844
				c-0.235-0.624-0.479-1.244-0.733-1.859c-0.123-0.297-0.246-0.593-0.373-0.888c-0.278-0.645-0.568-1.282-0.866-1.916
				c-0.107-0.227-0.209-0.458-0.319-0.684c-0.41-0.846-0.837-1.682-1.283-2.506c-0.089-0.164-0.185-0.325-0.275-0.488
				c-0.366-0.662-0.742-1.318-1.13-1.966c-0.16-0.266-0.324-0.53-0.488-0.793c-0.344-0.555-0.695-1.104-1.056-1.647
				c-0.171-0.259-0.342-0.518-0.517-0.774c-0.424-0.619-0.859-1.23-1.303-1.833c-0.112-0.151-0.218-0.307-0.331-0.457
				c-0.559-0.745-1.135-1.477-1.726-2.196c-0.157-0.191-0.32-0.377-0.479-0.566c-0.446-0.531-0.898-1.055-1.361-1.571
				c-0.212-0.236-0.427-0.47-0.642-0.703c-0.443-0.479-0.894-0.951-1.351-1.417c-0.208-0.212-0.413-0.425-0.624-0.634
				c-0.61-0.604-1.23-1.198-1.864-1.777c-0.055-0.05-0.107-0.103-0.162-0.153c-0.689-0.626-1.395-1.233-2.112-1.829
				c-0.216-0.179-0.436-0.352-0.654-0.529c-0.517-0.419-1.04-0.831-1.571-1.234c-0.253-0.193-0.508-0.383-0.764-0.572
				c-0.543-0.4-1.093-0.789-1.648-1.172c-0.224-0.154-0.445-0.312-0.671-0.463c-0.776-0.52-1.562-1.027-2.362-1.514
				c-0.101-0.062-0.206-0.119-0.308-0.18c-0.703-0.422-1.415-0.831-2.135-1.227c-0.266-0.146-0.535-0.286-0.803-0.429
				c-0.579-0.308-1.164-0.607-1.753-0.898c-0.286-0.141-0.572-0.281-0.861-0.418c-0.646-0.306-1.298-0.599-1.955-0.884
				c-0.217-0.094-0.431-0.193-0.649-0.285c-0.87-0.365-1.749-0.712-2.638-1.04c-0.203-0.075-0.409-0.141-0.612-0.214
				c-0.697-0.249-1.4-0.488-2.108-0.713c-0.304-0.097-0.61-0.188-0.916-0.281c-0.639-0.193-1.282-0.375-1.93-0.548
				c-0.304-0.081-0.607-0.164-0.913-0.241c-0.778-0.195-1.561-0.375-2.35-0.542c-0.161-0.034-0.32-0.074-0.481-0.107
				c-0.947-0.192-1.902-0.361-2.864-0.511c-0.268-0.042-0.539-0.075-0.809-0.113c-0.707-0.101-1.417-0.193-2.132-0.271
				c-0.333-0.036-0.668-0.069-1.003-0.1c-0.694-0.065-1.391-0.117-2.091-0.159c-0.307-0.019-0.613-0.041-0.921-0.055
				c-0.996-0.046-1.995-0.076-3.002-0.076s-2.007,0.03-3.002,0.076c-0.308,0.014-0.614,0.037-0.921,0.055
				c-0.7,0.042-1.397,0.094-2.091,0.159c-0.335,0.031-0.669,0.064-1.003,0.1c-0.715,0.078-1.425,0.169-2.132,0.271
				c-0.269,0.039-0.54,0.072-0.809,0.113c-0.962,0.15-1.917,0.319-2.864,0.511c-0.161,0.033-0.319,0.073-0.48,0.107
				c-0.789,0.167-1.573,0.347-2.351,0.542c-0.306,0.077-0.609,0.16-0.913,0.241c-0.647,0.173-1.291,0.355-1.93,0.548
				c-0.306,0.092-0.612,0.184-0.916,0.281c-0.708,0.225-1.41,0.464-2.108,0.713c-0.203,0.073-0.41,0.139-0.612,0.214
				c-0.889,0.328-1.769,0.675-2.639,1.04c-0.217,0.091-0.43,0.19-0.647,0.284c-0.658,0.285-1.311,0.579-1.958,0.885
				c-0.288,0.136-0.573,0.277-0.859,0.417c-0.591,0.291-1.176,0.591-1.756,0.899c-0.267,0.142-0.535,0.282-0.8,0.427
				c-0.721,0.396-1.433,0.805-2.137,1.228c-0.102,0.061-0.206,0.118-0.307,0.179c-0.8,0.487-1.586,0.994-2.363,1.514
				c-0.225,0.151-0.445,0.308-0.669,0.462c-0.556,0.383-1.107,0.773-1.65,1.173c-0.256,0.188-0.51,0.379-0.763,0.571
				c-0.531,0.404-1.055,0.816-1.573,1.236c-0.218,0.176-0.437,0.349-0.653,0.528c-0.716,0.596-1.423,1.204-2.113,1.83
				c-0.053,0.048-0.103,0.099-0.156,0.147c-0.636,0.581-1.258,1.177-1.87,1.783c-0.21,0.208-0.414,0.42-0.621,0.631
				c-0.458,0.467-0.91,0.94-1.354,1.42c-0.215,0.232-0.428,0.465-0.64,0.7c-0.464,0.517-0.918,1.043-1.365,1.575
				c-0.158,0.188-0.32,0.372-0.476,0.562c-0.591,0.72-1.167,1.452-1.727,2.197c-0.113,0.15-0.219,0.305-0.33,0.456
				c-0.445,0.604-0.881,1.216-1.305,1.836c-0.174,0.255-0.344,0.513-0.514,0.77c-0.361,0.544-0.713,1.094-1.058,1.65
				c-0.163,0.263-0.327,0.526-0.487,0.792c-0.388,0.648-0.764,1.304-1.13,1.966c-0.09,0.164-0.186,0.324-0.275,0.488
				c-0.446,0.825-0.873,1.661-1.284,2.507c-0.109,0.225-0.21,0.454-0.317,0.68c-0.299,0.634-0.589,1.273-0.867,1.918
				c-0.127,0.295-0.25,0.591-0.373,0.888c-0.254,0.615-0.497,1.235-0.733,1.859c-0.106,0.281-0.215,0.561-0.317,0.844
				c-0.047,0.131-0.1,0.259-0.146,0.39h-3.639V96h426.667v21.333h-64.192c-23.451,0-42.475,19.023-42.475,42.475v107.051
				c0,23.451,19.023,42.475,42.475,42.475h64.192V373.333z M405.333,266.667V160H448v106.667H405.333z"/>
		</g>
	</g>
</g>
</svg>