<!-- Generated by IcoMoon.io -->
<svg version="1.1" xmlns="http://www.w3.org/2000/svg" width="32" height="32" viewBox="0 0 32 32">
<path d="M14.667 8.667h-8c-0.736 0-1.333 0.597-1.333 1.333v5.333c0 0.736 0.597 1.333 1.333 1.333h8c0.736 0 1.333-0.597 1.333-1.333v-5.333c0-0.736-0.597-1.333-1.333-1.333zM13.333 14h-5.333v-2.667h5.333v2.667z"></path>
<path d="M32 8.667v-4c0-0.736-0.597-1.333-1.333-1.333h-29.333c-0.736-0-1.333 0.597-1.333 1.333v20c0 0.736 0.597 1.333 1.333 1.333h1.562c0.549 1.554 2.030 2.667 3.772 2.667s3.223-1.113 3.772-2.667h11.123c0.549 1.554 2.030 2.667 3.772 2.667s3.223-1.113 3.772-2.667h1.562c0.736 0 1.333-0.597 1.333-1.333v-6.667c0-0.736-0.597-1.333-1.333-1.333v-6.667c0.736 0 1.333-0.597 1.333-1.333zM6.667 26c-0.737 0-1.333-0.596-1.333-1.333s0.596-1.333 1.333-1.333 1.333 0.596 1.333 1.333-0.596 1.333-1.333 1.333zM25.333 26c-0.737 0-1.333-0.596-1.333-1.333s0.596-1.333 1.333-1.333 1.333 0.596 1.333 1.333-0.596 1.333-1.333 1.333zM29.333 23.333h-0.227c-0.003-0.008-0.006-0.016-0.009-0.024-0.006-0.018-0.013-0.035-0.020-0.053-0.015-0.039-0.030-0.078-0.046-0.116-0.008-0.019-0.015-0.037-0.023-0.056-0.017-0.040-0.035-0.080-0.054-0.119-0.007-0.014-0.013-0.029-0.020-0.043-0.026-0.053-0.052-0.105-0.080-0.157-0.006-0.010-0.012-0.021-0.017-0.031-0.023-0.041-0.046-0.082-0.070-0.122-0.010-0.017-0.020-0.033-0.031-0.050-0.021-0.035-0.043-0.069-0.066-0.103-0.011-0.016-0.021-0.032-0.032-0.048-0.026-0.039-0.054-0.077-0.081-0.114-0.007-0.010-0.014-0.019-0.021-0.029-0.035-0.047-0.071-0.092-0.108-0.137-0.010-0.012-0.020-0.023-0.030-0.035-0.028-0.033-0.056-0.066-0.085-0.098-0.013-0.015-0.027-0.029-0.040-0.044-0.028-0.030-0.056-0.060-0.085-0.089-0.013-0.013-0.026-0.026-0.039-0.039-0.038-0.038-0.077-0.075-0.117-0.111-0.003-0.003-0.006-0.006-0.010-0.009-0.043-0.039-0.087-0.077-0.132-0.114-0.014-0.011-0.027-0.022-0.041-0.033-0.032-0.026-0.065-0.052-0.098-0.077-0.016-0.012-0.032-0.024-0.048-0.036-0.034-0.025-0.068-0.049-0.103-0.073-0.014-0.010-0.028-0.019-0.042-0.029-0.049-0.033-0.098-0.064-0.148-0.095-0.006-0.004-0.013-0.007-0.019-0.011-0.044-0.026-0.089-0.052-0.134-0.077-0.017-0.009-0.033-0.018-0.050-0.027-0.036-0.019-0.073-0.038-0.11-0.056-0.018-0.009-0.036-0.018-0.054-0.026-0.040-0.019-0.081-0.038-0.122-0.055-0.014-0.006-0.027-0.012-0.040-0.018-0.054-0.023-0.109-0.045-0.165-0.065-0.013-0.005-0.026-0.009-0.038-0.013-0.044-0.016-0.087-0.030-0.132-0.045-0.019-0.006-0.038-0.012-0.057-0.018-0.040-0.012-0.080-0.023-0.121-0.034-0.019-0.005-0.038-0.010-0.057-0.015-0.049-0.012-0.098-0.023-0.147-0.034-0.010-0.002-0.020-0.005-0.030-0.007-0.059-0.012-0.119-0.023-0.179-0.032-0.017-0.003-0.034-0.005-0.050-0.007-0.044-0.006-0.089-0.012-0.133-0.017-0.021-0.002-0.042-0.004-0.063-0.006-0.043-0.004-0.087-0.007-0.131-0.010-0.019-0.001-0.038-0.003-0.058-0.003-0.062-0.003-0.125-0.005-0.188-0.005s-0.125 0.002-0.188 0.005c-0.019 0.001-0.038 0.002-0.058 0.003-0.044 0.003-0.087 0.006-0.131 0.010-0.021 0.002-0.042 0.004-0.063 0.006-0.045 0.005-0.089 0.011-0.133 0.017-0.017 0.002-0.034 0.005-0.051 0.007-0.060 0.009-0.12 0.020-0.179 0.032-0.010 0.002-0.020 0.005-0.030 0.007-0.049 0.010-0.098 0.022-0.147 0.034-0.019 0.005-0.038 0.010-0.057 0.015-0.040 0.011-0.081 0.022-0.121 0.034-0.019 0.006-0.038 0.012-0.057 0.018-0.044 0.014-0.088 0.029-0.132 0.045-0.013 0.005-0.026 0.009-0.038 0.013-0.056 0.020-0.111 0.042-0.165 0.065-0.014 0.006-0.027 0.012-0.040 0.018-0.041 0.018-0.082 0.036-0.122 0.055-0.018 0.009-0.036 0.017-0.054 0.026-0.037 0.018-0.073 0.037-0.11 0.056-0.017 0.009-0.033 0.018-0.050 0.027-0.045 0.025-0.090 0.050-0.134 0.077-0.006 0.004-0.013 0.007-0.019 0.011-0.050 0.030-0.099 0.062-0.148 0.095-0.014 0.009-0.028 0.019-0.042 0.029-0.035 0.024-0.069 0.048-0.103 0.073-0.016 0.012-0.032 0.024-0.048 0.036-0.033 0.025-0.066 0.051-0.098 0.077-0.014 0.011-0.027 0.022-0.041 0.033-0.045 0.037-0.089 0.075-0.132 0.114-0.003 0.003-0.006 0.006-0.010 0.009-0.040 0.036-0.079 0.074-0.117 0.111-0.013 0.013-0.026 0.026-0.039 0.039-0.029 0.029-0.057 0.059-0.085 0.089-0.013 0.015-0.027 0.029-0.040 0.044-0.029 0.032-0.057 0.065-0.085 0.098-0.010 0.012-0.020 0.023-0.030 0.035-0.037 0.045-0.073 0.091-0.108 0.137-0.007 0.009-0.014 0.019-0.021 0.029-0.028 0.038-0.055 0.076-0.082 0.115-0.011 0.016-0.021 0.032-0.032 0.048-0.023 0.034-0.045 0.068-0.066 0.103-0.010 0.016-0.020 0.033-0.030 0.049-0.024 0.041-0.048 0.081-0.071 0.123-0.006 0.010-0.012 0.020-0.017 0.030-0.028 0.052-0.055 0.104-0.080 0.157-0.007 0.014-0.013 0.028-0.020 0.043-0.019 0.040-0.037 0.080-0.054 0.12-0.008 0.018-0.016 0.037-0.023 0.055-0.016 0.038-0.031 0.077-0.046 0.116-0.007 0.018-0.013 0.035-0.020 0.053-0.003 0.008-0.006 0.016-0.009 0.024h-11.121c-0.003-0.008-0.006-0.016-0.009-0.024-0.006-0.018-0.013-0.035-0.020-0.053-0.015-0.039-0.030-0.078-0.046-0.116-0.008-0.019-0.015-0.037-0.023-0.055-0.017-0.040-0.036-0.080-0.054-0.12-0.007-0.014-0.013-0.029-0.020-0.043-0.026-0.053-0.052-0.105-0.080-0.157-0.006-0.010-0.012-0.020-0.017-0.030-0.023-0.041-0.046-0.082-0.071-0.123-0.010-0.017-0.020-0.033-0.030-0.050-0.021-0.035-0.043-0.069-0.066-0.103-0.011-0.016-0.021-0.032-0.032-0.048-0.027-0.039-0.054-0.077-0.081-0.115-0.007-0.009-0.014-0.019-0.021-0.029-0.035-0.047-0.071-0.092-0.108-0.137-0.010-0.012-0.020-0.024-0.030-0.035-0.028-0.033-0.056-0.066-0.085-0.098-0.013-0.015-0.027-0.029-0.040-0.044-0.028-0.030-0.056-0.059-0.084-0.089-0.013-0.013-0.026-0.027-0.039-0.040-0.038-0.038-0.077-0.075-0.117-0.111-0.003-0.003-0.007-0.006-0.010-0.010-0.043-0.039-0.087-0.077-0.132-0.114-0.014-0.011-0.027-0.022-0.041-0.033-0.032-0.026-0.065-0.052-0.098-0.077-0.016-0.012-0.032-0.024-0.048-0.036-0.034-0.025-0.068-0.049-0.103-0.073-0.014-0.010-0.028-0.020-0.042-0.029-0.049-0.032-0.098-0.064-0.148-0.095-0.006-0.004-0.013-0.007-0.019-0.011-0.044-0.026-0.088-0.052-0.133-0.077-0.017-0.009-0.033-0.018-0.050-0.027-0.036-0.019-0.073-0.038-0.11-0.056-0.018-0.009-0.036-0.018-0.054-0.026-0.040-0.019-0.081-0.037-0.122-0.055-0.014-0.006-0.027-0.012-0.041-0.018-0.054-0.023-0.109-0.044-0.165-0.065-0.013-0.005-0.026-0.009-0.038-0.013-0.044-0.016-0.088-0.030-0.132-0.045-0.019-0.006-0.038-0.012-0.057-0.018-0.040-0.012-0.080-0.023-0.121-0.034-0.019-0.005-0.038-0.010-0.057-0.015-0.049-0.012-0.098-0.023-0.147-0.034-0.010-0.002-0.020-0.005-0.030-0.007-0.059-0.012-0.119-0.023-0.179-0.032-0.017-0.003-0.034-0.005-0.051-0.007-0.044-0.006-0.089-0.012-0.133-0.017-0.021-0.002-0.042-0.004-0.063-0.006-0.043-0.004-0.087-0.007-0.131-0.010-0.019-0.001-0.038-0.003-0.058-0.003-0.062-0.003-0.125-0.005-0.188-0.005s-0.125 0.002-0.188 0.005c-0.019 0.001-0.038 0.002-0.058 0.003-0.044 0.003-0.087 0.006-0.131 0.010-0.021 0.002-0.042 0.004-0.063 0.006-0.045 0.005-0.089 0.011-0.133 0.017-0.017 0.002-0.034 0.005-0.051 0.007-0.060 0.009-0.12 0.020-0.179 0.032-0.010 0.002-0.020 0.005-0.030 0.007-0.049 0.010-0.098 0.022-0.147 0.034-0.019 0.005-0.038 0.010-0.057 0.015-0.040 0.011-0.081 0.022-0.121 0.034-0.019 0.006-0.038 0.012-0.057 0.018-0.044 0.014-0.088 0.029-0.132 0.045-0.013 0.005-0.026 0.009-0.038 0.013-0.056 0.020-0.111 0.042-0.165 0.065-0.014 0.006-0.027 0.012-0.040 0.018-0.041 0.018-0.082 0.036-0.122 0.055-0.018 0.009-0.036 0.017-0.054 0.026-0.037 0.018-0.074 0.037-0.11 0.056-0.017 0.009-0.033 0.018-0.050 0.027-0.045 0.025-0.090 0.050-0.134 0.077-0.006 0.004-0.013 0.007-0.019 0.011-0.050 0.030-0.099 0.062-0.148 0.095-0.014 0.009-0.028 0.019-0.042 0.029-0.035 0.024-0.069 0.048-0.103 0.073-0.016 0.012-0.032 0.024-0.048 0.036-0.033 0.025-0.066 0.051-0.098 0.077-0.014 0.011-0.027 0.022-0.041 0.033-0.045 0.037-0.089 0.075-0.132 0.114-0.003 0.003-0.006 0.006-0.010 0.009-0.040 0.036-0.079 0.074-0.117 0.111-0.013 0.013-0.026 0.026-0.039 0.039-0.029 0.029-0.057 0.059-0.085 0.089-0.013 0.015-0.027 0.029-0.040 0.044-0.029 0.032-0.057 0.065-0.085 0.098-0.010 0.012-0.020 0.023-0.030 0.035-0.037 0.045-0.073 0.091-0.108 0.137-0.007 0.009-0.014 0.019-0.021 0.029-0.028 0.038-0.055 0.076-0.082 0.115-0.011 0.016-0.022 0.032-0.032 0.048-0.023 0.034-0.045 0.068-0.066 0.103-0.010 0.016-0.020 0.033-0.030 0.049-0.024 0.041-0.048 0.081-0.071 0.123-0.006 0.010-0.012 0.020-0.017 0.030-0.028 0.052-0.055 0.104-0.080 0.157-0.007 0.014-0.013 0.028-0.020 0.043-0.019 0.040-0.037 0.080-0.054 0.12-0.008 0.018-0.016 0.037-0.023 0.055-0.016 0.038-0.031 0.077-0.046 0.116-0.007 0.018-0.013 0.035-0.020 0.053-0.003 0.008-0.006 0.016-0.009 0.024h-0.227v-17.333h26.667v1.333h-4.012c-1.466 0-2.655 1.189-2.655 2.655v6.691c0 1.466 1.189 2.655 2.655 2.655h4.012v4zM25.333 16.667v-6.667h2.667v6.667h-2.667z"></path>
</svg>
