<svg aria-hidden="true" style="position: absolute; width: 0px; height: 0px; overflow-x: hidden; overflow-y: hidden;" version="1.1" xmlns="http://www.w3.org/2000/svg"><defs><symbol id="icon-logo" viewBox="0 0 272 32"><path fill="#475467" style="" d="M270.786 14.375h-7.216a1.98 1.98 0 0 0-.47-1.15 2.637 2.637 0 0 0-1.064-.74c-.428-.18-.9-.27-1.422-.27-.672 0-1.25.123-1.732.37-.484.245-.72.596-.71 1.05-.01.322.128.62.412.895.292.275.856.488 1.69.64l4.432.794c2.234.407 3.896 1.094 4.986 2.06 1.098.956 1.652 2.24 1.662 3.85-.01 1.552-.474 2.902-1.392 4.047-.91 1.137-2.156 2.018-3.736 2.643-1.572.616-3.368.923-5.384.923-3.334 0-5.942-.682-7.826-2.046-1.876-1.364-2.922-3.163-3.14-5.398h7.784a2.24 2.24 0 0 0 1.022 1.605c.588.37 1.326.554 2.216.554.72 0 1.312-.122 1.776-.368.474-.246.716-.597.724-1.05-.008-.418-.218-.75-.624-.995-.398-.246-1.024-.445-1.876-.597l-3.862-.682c-2.226-.388-3.892-1.127-5-2.216s-1.658-2.49-1.648-4.205c-.01-1.515.388-2.798 1.192-3.85.814-1.06 1.974-1.865 3.48-2.414 1.516-.56 3.31-.838 5.384-.838 3.154 0 5.64.653 7.458 1.96 1.828 1.307 2.788 3.116 2.884 5.426z"/><path fill="#475467" style="" d="m232.83 23.92.056-9.318h1.024l5.284-7.33H248l-8.864 11.42h-2.216l-4.09 5.227zm-7.046 5.17V0h7.842v29.09h-7.842zm13.466 0-5-8.635 5.114-5.568 8.864 14.205h-8.978z"/><path fill="#475467" style="" d="M211.238 29.49c-2.368 0-4.394-.47-6.08-1.407-1.686-.947-2.978-2.263-3.878-3.95-.9-1.694-1.35-3.66-1.35-5.894s.45-4.196 1.35-5.882a9.562 9.562 0 0 1 3.878-3.95c1.686-.946 3.712-1.42 6.08-1.42 2.14 0 3.992.39 5.554 1.166 1.572.767 2.788 1.856 3.65 3.267.862 1.403 1.298 3.05 1.308 4.944h-7.274c-.104-1.146-.436-2.017-.994-2.614-.55-.606-1.26-.91-2.13-.91-.682 0-1.28.2-1.79.598-.512.388-.91.98-1.194 1.776-.284.786-.426 1.776-.426 2.97s.142 2.187.426 2.982c.284.786.682 1.378 1.194 1.776.51.388 1.108.582 1.79.582.576 0 1.088-.133 1.534-.398.444-.275.804-.672 1.078-1.193.286-.53.456-1.174.512-1.932h7.274c-.03 1.923-.47 3.6-1.322 5.03-.852 1.42-2.06 2.518-3.622 3.295-1.554.776-3.41 1.165-5.568 1.165z"/><path fill="#475467" style="" d="M188.097 19.545V7.272h7.84V29.09h-7.442v-4.148h-.227c-.473 1.392-1.302 2.48-2.486 3.267-1.184.776-2.59 1.164-4.22 1.164-1.524 0-2.86-.35-4.005-1.05-1.136-.702-2.022-1.668-2.656-2.9-.624-1.23-.94-2.64-.95-4.232V7.272h7.84v12.272c.01 1.08.284 1.927.824 2.543.55.616 1.316.923 2.3.923.654 0 1.218-.137 1.69-.412a2.814 2.814 0 0 0 1.11-1.193c.264-.52.392-1.14.382-1.86z"/><path fill="#475467" style="" d="M155.806 29.09V7.274h7.614v4.148h.227c.398-1.533 1.028-2.655 1.89-3.365.87-.71 1.888-1.065 3.053-1.065.34 0 .677.028 1.01.085.34.047.667.118.98.213v6.69c-.39-.133-.868-.232-1.436-.298s-1.056-.1-1.463-.1c-.766 0-1.457.176-2.073.527a3.71 3.71 0 0 0-1.435 1.45c-.35.615-.526 1.34-.526 2.172v11.363h-7.84z"/><path fill="#475467" style="" d="M128.902 6.364V0h25.284v6.364h-8.75V29.09h-7.784V6.365h-8.75z"/><path fill="#101828" style="" d="M125.016 0v29.09h-7.84V0h7.84z"/><path fill="#101828" style="" d="M102.493 29.49c-2.33 0-4.337-.446-6.023-1.336a9.355 9.355 0 0 1-3.878-3.864c-.9-1.686-1.35-3.703-1.35-6.05 0-2.255.455-4.224 1.365-5.91s2.192-2.997 3.85-3.935 3.612-1.406 5.865-1.406c1.648 0 3.14.255 4.475.766s2.476 1.255 3.423 2.23c.947.966 1.676 2.14 2.188 3.523s.767 2.94.767 4.672V20h-19.49v-4.318h12.274c-.01-.625-.17-1.174-.484-1.648a3.074 3.074 0 0 0-1.236-1.122c-.51-.275-1.094-.412-1.747-.412-.635 0-1.217.137-1.747.412-.53.265-.956.634-1.278 1.108-.313.473-.478 1.027-.497 1.662v4.66c0 .7.148 1.325.44 1.874s.716.98 1.265 1.293c.55.312 1.212.468 1.99.468.54 0 1.03-.076 1.476-.227.456-.15.844-.368 1.166-.652.322-.293.56-.644.71-1.05h7.16c-.247 1.514-.83 2.83-1.748 3.948-.92 1.108-2.135 1.97-3.65 2.585-1.507.607-3.268.91-5.285.91z"/><path fill="#101828" style="" d="m89.673 7.273-7.33 21.818h-9.09l-7.33-21.817h8.24l3.522 14.432h.227l3.523-14.432h8.24z"/><path fill="#101828" style="" d="M50.112 29.432c-1.392 0-2.623-.227-3.693-.682-1.062-.464-1.895-1.165-2.5-2.102s-.91-2.13-.91-3.58c0-1.193.204-2.21.61-3.054.408-.852.976-1.548 1.706-2.088s1.577-.952 2.543-1.236c.974-.284 2.025-.47 3.152-.554 1.222-.095 2.202-.208 2.94-.34.748-.143 1.288-.337 1.62-.583.33-.256.496-.592.496-1.01v-.056c0-.568-.218-1.004-.653-1.307s-.994-.455-1.676-.455c-.75 0-1.36.166-1.833.497-.464.322-.743.82-.838 1.49h-7.217a7.44 7.44 0 0 1 1.264-3.664c.758-1.127 1.86-2.027 3.31-2.7 1.45-.68 3.257-1.022 5.426-1.022 1.563 0 2.964.185 4.205.554 1.24.36 2.296.866 3.168 1.52.87.644 1.534 1.402 1.99 2.273.463.862.695 1.8.695 2.813V29.09h-7.328v-3.07h-.17c-.437.815-.967 1.474-1.592 1.975a5.85 5.85 0 0 1-2.117 1.094c-.786.226-1.652.34-2.6.34zm2.557-4.943c.596 0 1.154-.124 1.675-.37.53-.246.96-.6 1.293-1.065s.497-1.027.497-1.69v-1.818a8.73 8.73 0 0 1-.668.24 13.888 13.888 0 0 1-1.563.398c-.284.06-.582.11-.895.158-.607.095-1.104.25-1.493.47-.38.207-.663.468-.852.78-.18.303-.27.644-.27 1.023 0 .606.213 1.07.64 1.392s.97.483 1.632.483z"/><path fill="#101828" style="" d="M26.904 29.09V7.274h7.614v4.148h.227c.398-1.533 1.027-2.655 1.89-3.365.87-.71 1.888-1.065 3.053-1.065.34 0 .677.028 1.008.085.34.047.668.118.98.213v6.69c-.388-.133-.867-.232-1.435-.298s-1.055-.1-1.462-.1c-.767 0-1.458.176-2.074.527a3.71 3.71 0 0 0-1.435 1.45c-.35.615-.526 1.34-.526 2.172v11.363h-7.84z"/><path fill="#101828" style="" d="M0 6.364V0h25.284v6.364h-8.75V29.09H8.75V6.365H0z"/></symbol><symbol id="paneltruck" viewBox="0 0 32 32"><path d="M12 2H2v28h10V2zm18 0H20v10h10V2zm0 18v10H20V20h10zM0 2a2 2 0 0 1 2-2h10a2 2 0 0 1 2 2v28a2 2 0 0 1-2 2H2a2 2 0 0 1-2-2V2zm18 0a2 2 0 0 1 2-2h10a2 2 0 0 1 2 2v10a2 2 0 0 1-2 2H20a2 2 0 0 1-2-2V2zm2 16a2 2 0 0 0-2 2v10a2 2 0 0 0 2 2h10a2 2 0 0 0 2-2V20a2 2 0 0 0-2-2H20z"/></symbol><symbol id="alcove" viewBox="0 0 32 32"><path d="M8 4v4H4V4h4zm2 24v-4a2 2 0 0 0-2-2H4a2 2 0 0 0-2 2v4a2 2 0 0 0 2 2h4a2 2 0 0 0 2-2zm0-10v-4a2 2 0 0 0-2-2H4a2 2 0 0 0-2 2v4a2 2 0 0 0 2 2h4a2 2 0 0 0 2-2zm0-10V4a2 2 0 0 0-2-2H4a2 2 0 0 0-2 2v4a2 2 0 0 0 2 2h4a2 2 0 0 0 2-2zm10 20v-4a2 2 0 0 0-2-2h-4a2 2 0 0 0-2 2v4a2 2 0 0 0 2 2h4a2 2 0 0 0 2-2zm0-10v-4a2 2 0 0 0-2-2h-4a2 2 0 0 0-2 2v4a2 2 0 0 0 2 2h4a2 2 0 0 0 2-2zm0-10V4a2 2 0 0 0-2-2h-4a2 2 0 0 0-2 2v4a2 2 0 0 0 2 2h4a2 2 0 0 0 2-2zm-2-4v4h-4V4h4zm10 0v4h-4V4h4zM8 14v4H4v-4h4zm10 0v4h-4v-4h4zm10 0h-4v4h4v-4zM8 24v4H4v-4h4zm10 0v4h-4v-4h4zm10 0v4h-4v-4h4zM24 2a2 2 0 0 0-2 2v4a2 2 0 0 0 2 2h4a2 2 0 0 0 2-2V4a2 2 0 0 0-2-2h-4zm-2 12a2 2 0 0 1 2-2h4a2 2 0 0 1 2 2v4a2 2 0 0 1-2 2h-4a2 2 0 0 1-2-2v-4zm2 8a2 2 0 0 0-2 2v4a2 2 0 0 0 2 2h4a2 2 0 0 0 2-2v-4a2 2 0 0 0-2-2h-4z"/></symbol><symbol id="fullyintegrated" viewBox="0 0 32 32"><path d="M2 5c0-.796.316-1.56.88-2.12S4.204 2 5 2h6c.796 0 1.56.316 2.12.88S14 4.204 14 5v6c0 .796-.316 1.56-.88 2.12S11.796 14 11 14H5c-.796 0-1.56-.316-2.12-.88S2 11.796 2 11V5zm3-1a.997.997 0 0 0-1 1v6a.997.997 0 0 0 1 1h6a.997.997 0 0 0 1-1V5a.997.997 0 0 0-1-1H5zm13 1c0-.796.316-1.56.88-2.12S20.204 2 21 2h6c.796 0 1.56.316 2.12.88S30 4.204 30 5v6c0 .796-.316 1.56-.88 2.12S27.796 14 27 14h-6c-.796 0-1.56-.316-2.12-.88S18 11.796 18 11V5zm3-1a.997.997 0 0 0-1 1v6a.997.997 0 0 0 1 1h6a.997.997 0 0 0 1-1V5a.997.997 0 0 0-1-1h-6zM2 21c0-.796.316-1.56.88-2.12S4.204 18 5 18h6c.796 0 1.56.316 2.12.88S14 20.204 14 21v6c0 .796-.316 1.56-.88 2.12S11.796 30 11 30H5c-.796 0-1.56-.316-2.12-.88S2 27.796 2 27v-6zm3-1a.997.997 0 0 0-1 1v6a.997.997 0 0 0 1 1h6a.997.997 0 0 0 1-1v-6a.997.997 0 0 0-1-1H5zm13 1c0-.796.316-1.56.88-2.12S20.204 18 21 18h6c.796 0 1.56.316 2.12.88S30 20.204 30 21v6c0 .796-.316 1.56-.88 2.12S27.796 30 27 30h-6c-.796 0-1.56-.316-2.12-.88S18 27.796 18 27v-6zm3-1a.997.997 0 0 0-1 1v6a.997.997 0 0 0 1 1h6a.997.997 0 0 0 1-1v-6a.997.997 0 0 0-1-1h-6z"/></symbol><symbol id="kitchen" viewBox="0 0 32 32"><path d="M1 12a1.007 1.007 0 0 0-.78.374.997.997 0 0 0-.196.842l3.304 14.868A4.998 4.998 0 0 0 8.208 32h11.584a4.996 4.996 0 0 0 4.88-3.916l.262-1.18a6 6 0 0 0 2.6-11.708l.443-1.98A1.003 1.003 0 0 0 27 12H1zm25 13a4.05 4.05 0 0 1-.632-.05l1.734-7.796A4.002 4.002 0 0 1 26 25zM5.28 27.65 2.246 14h23.508L22.72 27.65c-.148.666-.52 1.262-1.05 1.69s-1.196.66-1.878.66H8.208a2.998 2.998 0 0 1-2.928-2.35z"/><path d="m8.8 1.6-.006.008-.028.038c-.146.2-.282.407-.408.62-.107.17-.202.35-.282.534-.052.12-.068.184-.074.206v.008c.023.177.085.346.182.496.15.266.356.544.616.89l.02.024c.236.316.52.694.74 1.086.224.4.44.91.44 1.49 0 .376-.13.736-.238.988-.116.268-.25.527-.404.776a10.2 10.2 0 0 1-.506.764l-.036.05-.01.016-.004.004a1.004 1.004 0 0 1-1.4.202A1 1 0 0 1 7.2 8.4l.006-.008.028-.038c.146-.2.282-.407.408-.62.107-.17.202-.35.282-.534.052-.12.068-.184.074-.206a1.2 1.2 0 0 0-.18-.504A8.024 8.024 0 0 0 7.2 5.6l-.02-.024c-.27-.345-.517-.708-.74-1.086A3.066 3.066 0 0 1 6 3c0-.376.13-.736.238-.988.118-.276.268-.548.404-.776.16-.26.328-.516.506-.764l.05-.07A1.004 1.004 0 0 1 8.598.2 1.004 1.004 0 0 1 8.8 1.6zm6 0-.006.008-.028.038c-.146.2-.282.407-.408.62-.107.17-.202.35-.282.534-.052.12-.068.184-.074.206v.008c.023.177.085.346.182.496.15.266.356.544.616.89l.02.024c.236.316.52.694.74 1.086.224.4.44.91.44 1.49 0 .376-.13.736-.238.988-.116.268-.25.527-.404.776a10.2 10.2 0 0 1-.506.764l-.036.05-.01.016-.004.004a1.004 1.004 0 0 1-1.4.202 1 1 0 0 1-.202-1.4l.006-.008.028-.038c.146-.2.282-.407.408-.62.107-.17.202-.35.282-.534.052-.12.068-.184.074-.206a1.2 1.2 0 0 0-.18-.504 8.024 8.024 0 0 0-.618-.89l-.02-.024c-.27-.345-.517-.708-.74-1.086A3.066 3.066 0 0 1 12 3c0-.376.13-.736.238-.988.118-.276.268-.548.404-.776.16-.26.328-.516.506-.764l.05-.07a1.004 1.004 0 0 1 1.4-.202 1 1 0 0 1 .202 1.4zm6 0-.006.008-.028.038c-.145.2-.282.407-.408.62-.107.17-.202.35-.282.534-.052.12-.068.184-.074.206v.008c.023.177.085.346.182.496.15.266.356.544.616.89l.02.024c.236.316.52.694.74 1.086.224.4.44.91.44 1.49 0 .376-.13.736-.238.988-.116.268-.25.527-.404.776a9.875 9.875 0 0 1-.504.764l-.038.05-.01.016-.004.004a1.004 1.004 0 0 1-1.4.202 1 1 0 0 1-.202-1.4l.006-.008.028-.038c.145-.2.282-.407.408-.62.107-.17.202-.35.282-.534.052-.12.068-.184.074-.206a1.2 1.2 0 0 0-.18-.504 8.024 8.024 0 0 0-.618-.89l-.02-.024c-.27-.345-.517-.708-.74-1.086A3.066 3.066 0 0 1 18 3c0-.376.13-.736.238-.988.118-.276.268-.548.404-.776.16-.26.328-.516.506-.764l.05-.07a1.004 1.004 0 0 1 1.4-.202 1 1 0 0 1 .202 1.4z"/></symbol><symbol id="transmission" viewBox="0 0 32 32"><path d="M12 7c0-.796.316-1.56.88-2.12S14.204 4 15 4h2c.796 0 1.56.316 2.12.88S20 6.204 20 7v2c0 .796-.316 1.56-.88 2.12S17.796 12 17 12v2h11a.997.997 0 0 1 1 1v2a.997.997 0 0 1-1 1 .997.997 0 0 1-1-1v-1H17v1a.997.997 0 0 1-1 1 .997.997 0 0 1-1-1v-1H5v1a.997.997 0 0 1-1 1 .997.997 0 0 1-1-1v-2a.997.997 0 0 1 1-1h11v-2c-.796 0-1.56-.316-2.12-.88S12 9.796 12 9V7zm5 3a.997.997 0 0 0 1-1V7a.997.997 0 0 0-1-1h-2a.997.997 0 0 0-1 1v2a.997.997 0 0 0 1 1h2zM0 23c0-.796.316-1.56.88-2.12S2.204 20 3 20h2c.796 0 1.56.316 2.12.88S8 22.204 8 23v2c0 .796-.316 1.56-.88 2.12S5.796 28 5 28H3c-.796 0-1.56-.316-2.12-.88S0 25.796 0 25v-2zm3-1a.997.997 0 0 0-1 1v2a.997.997 0 0 0 1 1h2a.997.997 0 0 0 1-1v-2a.997.997 0 0 0-1-1H3zm9 1c0-.796.316-1.56.88-2.12S14.204 20 15 20h2c.796 0 1.56.316 2.12.88S20 22.204 20 23v2c0 .796-.316 1.56-.88 2.12S17.796 28 17 28h-2c-.796 0-1.56-.316-2.12-.88S12 25.796 12 25v-2zm3-1a.997.997 0 0 0-1 1v2a.997.997 0 0 0 1 1h2a.997.997 0 0 0 1-1v-2a.997.997 0 0 0-1-1h-2zm9 1c0-.796.316-1.56.88-2.12S26.204 20 27 20h2c.796 0 1.56.316 2.12.88S32 22.204 32 23v2c0 .796-.316 1.56-.88 2.12S29.796 28 29 28h-2c-.796 0-1.56-.316-2.12-.88S24 25.796 24 25v-2zm3-1a.997.997 0 0 0-1 1v2a.997.997 0 0 0 1 1h2a.997.997 0 0 0 1-1v-2a.997.997 0 0 0-1-1h-2z"/></symbol><symbol id="icon-heart-red" viewBox="0 0 32 32"><path fill="#e44848" style="" d="m16 13.14-1.788-3.58c-.444-.885-1.214-2.16-2.304-3.19C10.836 5.358 9.552 4.668 8 4.668c-3.352 0-6 2.652-6 5.84 0 2.422 1.108 4.132 3.736 6.74.674.668 1.442 1.39 2.292 2.186C10.244 21.513 13 24.1 16 27.56c3-3.46 5.756-6.047 7.972-8.127.85-.796 1.62-1.52 2.292-2.186C28.892 14.64 30 12.93 30 10.507c0-3.188-2.648-5.84-6-5.84-1.554 0-2.836.69-3.908 1.704-1.09 1.03-1.86 2.305-2.304 3.19L16 13.14zm.784 16.583a1.022 1.022 0 0 1-1.216.27 1.04 1.04 0 0 1-.352-.27c-3.202-3.804-6.1-6.524-8.486-8.762C2.6 17.084 0 14.646 0 10.508c0-4.33 3.58-7.84 8-7.84 3.2 0 5.438 2.1 6.808 4.016A15.1 15.1 0 0 1 16 8.667c.346-.69.745-1.354 1.192-1.984C18.562 4.765 20.8 2.667 24 2.667c4.42 0 8 3.51 8 7.84 0 4.138-2.6 6.576-6.73 10.454-2.386 2.24-5.284 4.963-8.486 8.763z"/></symbol><symbol id="icon-heart-favorite" viewBox="0 0 32 32"><path d="m16 13.14-1.788-3.58c-.444-.885-1.214-2.16-2.304-3.19C10.836 5.358 9.552 4.668 8 4.668c-3.352 0-6 2.652-6 5.84 0 2.422 1.108 4.132 3.736 6.74.674.668 1.442 1.39 2.292 2.186C10.244 21.513 13 24.1 16 27.56c3-3.46 5.756-6.047 7.972-8.127.85-.796 1.62-1.52 2.292-2.186C28.892 14.64 30 12.93 30 10.507c0-3.188-2.648-5.84-6-5.84-1.554 0-2.836.69-3.908 1.704-1.09 1.03-1.86 2.305-2.304 3.19L16 13.14zm.784 16.583a1.022 1.022 0 0 1-1.216.27 1.04 1.04 0 0 1-.352-.27c-3.202-3.804-6.1-6.524-8.486-8.762C2.6 17.084 0 14.646 0 10.508c0-4.33 3.58-7.84 8-7.84 3.2 0 5.438 2.1 6.808 4.016A15.1 15.1 0 0 1 16 8.667c.346-.69.745-1.354 1.192-1.984C18.562 4.765 20.8 2.667 24 2.667c4.42 0 8 3.51 8 7.84 0 4.138-2.6 6.576-6.73 10.454-2.386 2.24-5.284 4.963-8.486 8.763z"/></symbol><symbol id="icon-gas" viewBox="0 0 32 32"><path stroke-linejoin="round" stroke-linecap="round" stroke-miterlimit="4" stroke-width="2.4" d="M8 25.333h5.333M24 25.345v-.012M2.667 8c0-4.413.92-5.333 5.333-5.333h16c4.413 0 5.333.92 5.333 5.333v16c0 4.413-.92 5.333-5.333 5.333H8c-4.413 0-5.333-.92-5.333-5.333V8z" fill="none" stroke="black"/><path stroke-linejoin="round" stroke-linecap="round" stroke-miterlimit="4" stroke-width="2.4" d="M16 18.667A5.333 5.333 0 1 0 16 8a5.333 5.333 0 0 0 0 10.667z" fill="none" stroke="black"/><path stroke-linejoin="round" stroke-linecap="round" stroke-miterlimit="4" stroke-width="2.4" d="M20.667 13.333h2M16 18v2m-4.667-6.667h-2M16 8.667v-2" fill="none" stroke="black"/></symbol><symbol id="icon-water" viewBox="0 0 32 32"><path stroke-linejoin="miter" stroke-linecap="butt" stroke-miterlimit="10" stroke-width="2" d="M25 20c0 5.523-3.477 9-9 9s-9-3.477-9-9c0-5.927 6.452-13.928 8.43-16.242a.763.763 0 0 1 .57-.263.744.744 0 0 1 .57.263C18.55 6.072 25 14.074 25 20z" fill="none" stroke="black"/><path stroke-linejoin="round" stroke-linecap="round" stroke-miterlimit="4" stroke-width="2" d="M21.5 20.5A4.5 4.5 0 0 1 17 25" fill="none" stroke="black"/></symbol><symbol id="icon-microwave" viewBox="0 0 32 32"><path stroke-linejoin="round" stroke-linecap="round" stroke-miterlimit="4" stroke-width="2" d="M26.667 5.333H5.334A2.667 2.667 0 0 0 2.667 8v14.667a2.667 2.667 0 0 0 2.667 2.667h21.333a2.667 2.667 0 0 0 2.667-2.667V8a2.667 2.667 0 0 0-2.667-2.667z" fill="none" stroke="black"/><path stroke-linejoin="round" stroke-linecap="round" stroke-miterlimit="4" stroke-width="2" d="M17.333 10.667h-8C8.597 10.667 8 11.264 8 12v6.667C8 19.403 8.597 20 9.333 20h8c.736 0 1.333-.597 1.333-1.333V12c0-.736-.597-1.333-1.333-1.333z" fill="none" stroke="black"/><path stroke-linejoin="round" stroke-linecap="round" stroke-miterlimit="4" stroke-width="2" d="M24 10.667V20M8 25.333V28m16-2.667V28" fill="none" stroke="black"/></symbol><symbol id="location" viewBox="0 0 32 32"><path d="M31.634.226A.99.99 0 0 1 32 1v28a1 1 0 0 1-.804.98l-10 2a.995.995 0 0 1-.392 0L11 30.02l-9.804 1.96a.995.995 0 0 1-1.1-.552A1.003 1.003 0 0 1 0 31V3a1 1 0 0 1 .804-.98l10-2a.995.995 0 0 1 .392 0L21 1.98 30.804.02a.996.996 0 0 1 .83.206zM20 3.82l-8-1.6v25.96l8 1.6V3.82zm2 25.96 8-1.6V2.22l-8 1.6v25.96zm-12-1.6V2.22l-8 1.6v25.96l8-1.6z"/></symbol><symbol id="bathroom" viewBox="0 0 32 32"><path d="M8 29.5a1.495 1.495 0 0 1-.926 1.385 1.504 1.504 0 0 1-1.635-.325 1.497 1.497 0 0 1-.327-1.635 1.5 1.5 0 0 1 2.885.574zm2.5-5.5a1.495 1.495 0 0 0-1.385.926 1.496 1.496 0 0 0 .326 1.635c.21.21.478.354.77.41s.59.03.866-.084a1.497 1.497 0 0 0 .926-1.385 1.503 1.503 0 0 0-1.5-1.5zm-8 0a1.495 1.495 0 0 0-1.385.926 1.496 1.496 0 0 0 .326 1.635c.21.21.478.354.77.41s.592.03.866-.084A1.5 1.5 0 0 0 2.502 24zm4-4a1.495 1.495 0 0 0-1.385.926 1.496 1.496 0 0 0 .326 1.635c.21.21.478.354.77.41s.592.03.866-.084A1.5 1.5 0 0 0 6.502 20zM32 5a.997.997 0 0 1-1 1h-3.586l-3.48 3.482-2.708 15.85a1.995 1.995 0 0 1-1.363 1.572 2.002 2.002 0 0 1-2.023-.49L5.59 14.164a2.002 2.002 0 0 1 1.086-3.39l15.842-2.708 3.775-3.775A1.007 1.007 0 0 1 27 4h4a.997.997 0 0 1 1 1zm-10.224 5.224L7 12.75 19.25 25l2.526-14.776z"/></symbol><symbol id="icon-refrigerator" viewBox="0 0 32 32"><path d="M23.667 9.333a.997.997 0 0 0-1-1 .997.997 0 0 0-1 1V12a.997.997 0 0 0 1 1 .997.997 0 0 0 1-1V9.333zm0 9.334a.997.997 0 0 0-1-1 .997.997 0 0 0-1 1v2.667a.997.997 0 0 0 1 1 .997.997 0 0 0 1-1v-2.667z"/><path d="M16.075 1.667h-.15c-2.45 0-4.39 0-5.91.204-1.563.212-2.828.654-3.827 1.652-.997 1-1.44 2.264-1.65 3.827-.205 1.52-.205 3.46-.205 5.91v4.15c0 2.45 0 4.39.204 5.91.21 1.563.653 2.828 1.65 3.827.614.612 1.326 1.015 2.146 1.284v.905a1 1 0 0 0 1 1h1.333a.997.997 0 0 0 1-1v-.395c1.21.06 2.62.06 4.26.06h.148c1.64 0 3.05 0 4.26-.06v.395a1 1 0 0 0 1 1h1.332a.997.997 0 0 0 1-1v-.904c.82-.268 1.533-.67 2.145-1.283.998-1 1.44-2.264 1.652-3.827.204-1.52.204-3.46.204-5.91v-4.15c0-2.45 0-4.39-.204-5.91-.21-1.563-.653-2.828-1.65-3.827-1-.997-2.265-1.44-3.828-1.65-1.52-.205-3.46-.205-5.91-.205zm-8.472 3.27c.564-.565 1.337-.904 2.68-1.084 1.37-.184 3.175-.187 5.718-.187s4.35.003 5.72.187c1.34.18 2.114.52 2.678 1.083s.903 1.337 1.083 2.68c.185 1.37.188 3.175.188 5.718v1H6.335v-1c0-2.543.003-4.348.187-5.72.18-1.34.52-2.113 1.083-2.677zm-1.27 11.396h19.333v1c0 2.543-.003 4.35-.187 5.72-.18 1.34-.52 2.113-1.084 2.677s-1.337.903-2.68 1.083c-1.37.184-3.175.187-5.718.187s-4.348-.003-5.72-.187c-1.34-.18-2.113-.52-2.677-1.083S6.7 24.393 6.52 23.05c-.184-1.368-.187-3.175-.187-5.718v-1z"/></symbol><symbol id="icon-star-gold" viewBox="0 0 32 32"><path fill="#ffc531" style="" d="M15.116 1.676a1 1 0 0 1 1.77 0l3.776 7.158a1 1 0 0 0 .714.52l7.975 1.38a1 1 0 0 1 .548 1.68l-5.64 5.805a1 1 0 0 0-.274.838l1.152 8.01a1 1 0 0 1-1.43 1.04l-7.264-3.57a.998.998 0 0 0-.882 0l-7.262 3.57a1 1 0 0 1-1.43-1.04l1.15-8.01a1 1 0 0 0-.272-.84l-5.64-5.803a1 1 0 0 1 .547-1.682l7.974-1.38a.998.998 0 0 0 .714-.52l3.777-7.157z"/></symbol><symbol id="icon-star-gray" viewBox="0 0 32 32"><path d="M15.116 1.676a1 1 0 0 1 1.77 0l3.776 7.158a1 1 0 0 0 .714.52l7.975 1.38a1 1 0 0 1 .548 1.68l-5.64 5.805a1 1 0 0 0-.274.838l1.152 8.01a1 1 0 0 1-1.43 1.04l-7.264-3.57a.998.998 0 0 0-.882 0l-7.262 3.57a1 1 0 0 1-1.43-1.04l1.15-8.01a1 1 0 0 0-.272-.84l-5.64-5.803a1 1 0 0 1 .547-1.682l7.974-1.38a.998.998 0 0 0 .714-.52l3.777-7.157z"/></symbol><symbol id="icon-travel-trucks" viewBox="0 0 32 32"><path d="M14.667 8.667h-8c-.736 0-1.333.597-1.333 1.333v5.333c0 .736.597 1.333 1.333 1.333h8c.736 0 1.333-.597 1.333-1.333V10c0-.736-.597-1.333-1.333-1.333zM13.333 14H8v-2.667h5.333V14z"/><path d="M32 8.667v-4c0-.736-.597-1.333-1.333-1.333H1.334C.598 3.334 0 3.93 0 4.667v20C0 25.403.6 26 1.335 26h1.562a4 4 0 0 0 7.544 0h11.123a4 4 0 0 0 7.544 0h1.562c.735 0 1.332-.597 1.332-1.333V18c0-.736-.597-1.333-1.333-1.333V10C31.404 10 32 9.403 32 8.667zM6.667 26a1.332 1.332 0 1 1 0-2.666 1.332 1.332 0 1 1 0 2.666zm18.666 0a1.332 1.332 0 1 1 0-2.666 1.332 1.332 0 1 1 0 2.666zm4-2.667h-.227l-.01-.024c-.005-.02-.012-.036-.02-.054-.014-.04-.03-.078-.045-.116l-.022-.056a2.548 2.548 0 0 0-.054-.12l-.02-.042a4.63 4.63 0 0 0-.167-.31 2.244 2.244 0 0 0-.097-.153c-.01-.016-.02-.032-.032-.048l-.08-.113-.022-.03a3.612 3.612 0 0 0-.108-.136l-.03-.034-.085-.098-.04-.044-.085-.09-.04-.038a3.067 3.067 0 0 0-.116-.11l-.01-.01a3.595 3.595 0 0 0-.132-.114c-.014-.01-.027-.022-.04-.033a3.688 3.688 0 0 0-.1-.078l-.047-.036a3.81 3.81 0 0 0-.103-.073l-.042-.03a4.638 4.638 0 0 0-.148-.094c-.006-.005-.013-.008-.02-.012a5.832 5.832 0 0 0-.133-.077l-.05-.026a3.777 3.777 0 0 0-.286-.137l-.04-.018a2.975 2.975 0 0 0-.164-.066c-.013-.005-.026-.01-.038-.013l-.132-.044-.057-.018a4.27 4.27 0 0 0-.122-.034l-.057-.015c-.048-.013-.097-.024-.146-.035l-.03-.007a3.523 3.523 0 0 0-.18-.032l-.05-.007a6.042 6.042 0 0 0-.132-.018l-.063-.006a5.36 5.36 0 0 0-.132-.01c-.02 0-.038-.003-.058-.003a3.897 3.897 0 0 0-.376 0c-.02 0-.038.002-.058.003a5.77 5.77 0 0 0-.13.01l-.064.006c-.045.005-.09.01-.133.017-.018 0-.035.004-.052.006-.06.01-.12.02-.18.032l-.03.007c-.048.01-.097.022-.146.034l-.057.014c-.04.01-.08.022-.12.034l-.058.018-.132.045c-.013.006-.026.01-.038.014-.056.02-.11.042-.165.065-.014.005-.027.01-.04.017l-.122.055c-.018.01-.036.017-.054.026l-.11.056-.05.027c-.045.026-.09.05-.134.078l-.02.01c-.05.03-.098.063-.147.096l-.042.03a3.81 3.81 0 0 0-.103.072l-.048.036c-.033.025-.066.05-.098.077a3.595 3.595 0 0 0-.173.147l-.01.008c-.04.036-.078.074-.116.11l-.04.04-.084.09-.04.043c-.03.032-.057.065-.085.098l-.03.035-.108.138-.02.03a4.768 4.768 0 0 0-.083.114c-.01.016-.02.032-.032.048a2.244 2.244 0 0 0-.066.103l-.03.05c-.024.04-.048.08-.07.122a3.31 3.31 0 0 0-.097.187 3.165 3.165 0 0 0-.097.218c-.018.038-.033.077-.048.116l-.02.053-.01.023h-11.12l-.01-.024c-.005-.02-.012-.036-.02-.054-.014-.04-.03-.078-.045-.116l-.023-.055-.054-.12-.02-.043a4.63 4.63 0 0 0-.168-.31l-.03-.05A2.244 2.244 0 0 0 10 22.46l-.033-.05-.08-.114-.022-.03a3.612 3.612 0 0 0-.138-.17l-.085-.1-.04-.043-.084-.09-.04-.04a3.067 3.067 0 0 0-.116-.11l-.01-.01a3.595 3.595 0 0 0-.132-.114l-.04-.034a3.688 3.688 0 0 0-.1-.077 3.81 3.81 0 0 0-.15-.11l-.042-.03c-.05-.03-.098-.063-.148-.094l-.02-.01c-.043-.027-.087-.053-.132-.078l-.05-.027a3.777 3.777 0 0 0-.286-.136l-.04-.018a4.042 4.042 0 0 0-.166-.065l-.038-.012-.132-.045-.057-.018a4.27 4.27 0 0 0-.122-.034l-.057-.014-.146-.034-.03-.007a3.523 3.523 0 0 0-.18-.032l-.05-.007a6.042 6.042 0 0 0-.133-.017l-.062-.007a5.36 5.36 0 0 0-.13-.01l-.06-.003a3.897 3.897 0 0 0-.375 0c-.02 0-.038.002-.058.003a5.77 5.77 0 0 0-.13.01l-.064.006c-.044.004-.088.01-.132.016l-.05.007c-.06.01-.12.02-.18.032l-.03.007c-.05.01-.098.022-.147.034l-.056.015-.12.035-.058.018-.132.045c-.013.005-.026.01-.038.013-.056.02-.11.043-.165.066l-.04.018-.12.055-.055.025a3.777 3.777 0 0 0-.11.056c-.017.01-.033.02-.05.028-.045.025-.09.05-.134.077-.005.004-.012.007-.018.01-.05.03-.1.063-.148.096l-.042.03a3.81 3.81 0 0 0-.103.073l-.05.036-.097.076c-.014.01-.027.022-.04.033-.046.036-.09.074-.133.113l-.01.01c-.04.035-.08.073-.117.11l-.04.04-.084.088-.04.045c-.03.032-.058.065-.086.098l-.03.035c-.037.045-.073.09-.108.137l-.02.03a4.768 4.768 0 0 0-.18.265l-.03.05c-.025.04-.05.08-.072.122a3.31 3.31 0 0 0-.097.187l-.02.043a3.165 3.165 0 0 0-.077.175l-.046.116-.02.053-.01.024H2.66V5.997h26.667V7.33h-4.012a2.655 2.655 0 0 0-2.655 2.655v6.69a2.655 2.655 0 0 0 2.655 2.656h4.012v4zm-4-6.666V10H28v6.667h-2.667z"/></symbol><symbol id="tv" viewBox="0 0 32 32"><path d="M0 8s0-4 4-4h24s4 0 4 4v12s0 4-4 4h-8c0 1.333.167 2.333.5 3H22a.997.997 0 0 1 1 1 .997.997 0 0 1-1 1H10a.997.997 0 0 1-1-1 .997.997 0 0 1 1-1h1.5c.333-.667.5-1.667.5-3H4s-4 0-4-4V8zm2.796-1.71a1.51 1.51 0 0 0-.508.604A3.013 3.013 0 0 0 2 8.02V20c0 .65.156 1.004.29 1.204.14.208.34.377.604.508.338.162.703.26 1.076.286l.05.002H28c.65 0 1.004-.156 1.204-.29.22-.153.395-.36.508-.604a2.99 2.99 0 0 0 .286-1.076l.002-.05V8c0-.65-.156-1.004-.29-1.204a1.51 1.51 0 0 0-.604-.508A3.018 3.018 0 0 0 27.98 6H4c-.65 0-1.004.156-1.204.29z"/></symbol><symbol id="icon-radio" viewBox="0 0 32 32"><path d="M14 5a.997.997 0 0 1 1-1h14a.997.997 0 0 1 1 1v2a.997.997 0 0 1-1 1H15a.997.997 0 0 1-1-1V5zM0 24a5.996 5.996 0 0 1 6-6 6.002 6.002 0 0 1 4.243 10.243A6 6 0 0 1 0 24zm14-3a.997.997 0 0 1 1-1h14a.997.997 0 0 1 1 1v2a.997.997 0 0 1-1 1H15a.997.997 0 0 1-1-1v-2zm0-10a.997.997 0 0 1 1-1h10a.997.997 0 0 1 1 1 .997.997 0 0 1-1 1H15a.997.997 0 0 1-1-1zm0 16a.997.997 0 0 1 1-1h10a.997.997 0 0 1 1 1 .997.997 0 0 1-1 1H15a.997.997 0 0 1-1-1zM6 2a5.99 5.99 0 0 0-4.243 1.758A6.01 6.01 0 0 0 0 8a5.99 5.99 0 0 0 1.757 4.244A6.01 6.01 0 0 0 6 14.002a5.996 5.996 0 0 0 6-6 5.996 5.996 0 0 0-6-6zm0 9c-.796 0-1.56-.316-2.12-.88S3 8.796 3 8c0-.796.316-1.56.88-2.12S5.204 5 6 5c.796 0 1.56.316 2.12.88S9 7.204 9 8c0 .796-.316 1.56-.88 2.12S6.796 11 6 11z"/></symbol><symbol id="ac" viewBox="0 0 32 32"><path d="M25 4a5 5 0 0 0-5 5 .997.997 0 0 1-1 1 .997.997 0 0 1-1-1 6.994 6.994 0 0 1 4.322-6.467 6.998 6.998 0 0 1 9.544 5.102 7.006 7.006 0 0 1-2.976 7.186A6.994 6.994 0 0 1 25 16H1a.997.997 0 0 1-1-1 .997.997 0 0 1 1-1h24a5 5 0 0 0 0-10zM11 6a2 2 0 0 0-2 2 .997.997 0 0 1-1 1 .997.997 0 0 1-1-1 4.004 4.004 0 0 1 2.47-3.695A4 4 0 1 1 11 12H1a.997.997 0 0 1-1-1 .997.997 0 0 1 1-1h10a2 2 0 0 0 0-4zM0 19a.997.997 0 0 1 1-1h20.084a5.998 5.998 0 0 1 4.242 10.243 5.996 5.996 0 0 1-6.54 1.3 6 6 0 0 1-3.703-5.542.997.997 0 0 1 1-1 .997.997 0 0 1 1 1 4.004 4.004 0 0 0 2.47 3.696A4 4 0 1 0 21.082 20H1a.997.997 0 0 1-1-1z"/></symbol><symbol id="engin" viewBox="0 0 32 32"><path d="M6 5a.997.997 0 0 1 1-1h10a.997.997 0 0 1 1 1v10a.997.997 0 0 1-1 1H7a.997.997 0 0 1-1-1V5z"/><path d="M2 4a4.005 4.005 0 0 1 4-4h12a4.005 4.005 0 0 1 4 4v16a4.005 4.005 0 0 1 4 4v1a.997.997 0 0 0 1 1 .997.997 0 0 0 1-1v-9h-1a.997.997 0 0 1-1-1V8.75a.997.997 0 0 1 1-1h2.99c-.022-.952-.106-1.788-.402-2.444a1.944 1.944 0 0 0-.788-.916C28.432 4.17 27.872 4 27 4a.997.997 0 0 1-1-1 .997.997 0 0 1 1-1c1.128-.003 2.07.22 2.824.672.766.456 1.268 1.102 1.588 1.814.59 1.31.588 2.93.588 4.162v6.35c0 .132-.025.262-.076.383s-.124.233-.217.326A.99.99 0 0 1 31 16h-1v9a3.004 3.004 0 0 1-3 3 2.998 2.998 0 0 1-3-3v-1a2 2 0 0 0-2-2v8h1a.997.997 0 0 1 1 1 .997.997 0 0 1-1 1H1a.997.997 0 0 1-1-1 .997.997 0 0 1 1-1h1V4zm18 0a2 2 0 0 0-2-2H6a2 2 0 0 0-2 2v26h16V4z"/></symbol></defs></svg>